<svg xmlns="http://www.w3.org/2000/svg" viewBox="0 0 348 348" fill="none"><path d="M5.08 5.78h336.91v337.67H5.08z" stroke-width="2" stroke="#000"/><g aria-label="Some of the hinges are missing." style="line-height:1.25" font-weight="400" font-size="20.23" font-family="sans-serif" letter-spacing="0" word-spacing="0" fill="#000" stroke-width=".51"><path d="M43.3 161.02v2.24q-.98-.62-1.85-.93-.88-.3-1.7-.3-1.4 0-2.18.72-.76.73-.76 2.07 0 1.13.5 1.7.52.58 1.94.93l1.05.28q1.94.5 2.85 1.73.93 1.23.93 3.3 0 2.47-1.25 3.75-1.25 1.27-3.66 1.27-.9 0-1.93-.27-1.02-.28-2.12-.81v-2.37q1.05.79 2.06 1.19 1.02.4 2 .4 1.48 0 2.28-.78.81-.77.81-2.2 0-1.26-.58-1.96t-1.9-1.06l-1.05-.27q-1.94-.52-2.8-1.6-.87-1.1-.87-3.05 0-2.25 1.19-3.55 1.2-1.3 3.3-1.3.9 0 1.84.22.93.22 1.9.65zM50.44 166.18q-1.27 0-2.01 1.32-.74 1.3-.74 3.59t.73 3.6q.74 1.31 2.02 1.31 1.26 0 2-1.31.73-1.32.73-3.6 0-2.26-.74-3.58-.73-1.33-2-1.33zm0-1.78q2.05 0 3.23 1.78 1.17 1.77 1.17 4.91 0 3.13-1.17 4.91-1.18 1.78-3.23 1.78-2.07 0-3.25-1.78-1.16-1.78-1.16-4.91 0-3.14 1.16-4.91 1.18-1.78 3.25-1.78zM64.93 167.15q.6-1.4 1.41-2.08.83-.67 1.94-.67 1.5 0 2.32 1.4.81 1.39.81 3.96v7.69h-1.58v-7.62q0-1.83-.5-2.72-.48-.89-1.48-.89-1.23 0-1.94 1.08t-.71 2.95v7.2h-1.6v-7.62q0-1.85-.48-2.72-.49-.89-1.51-.89-1.2 0-1.92 1.1-.71 1.07-.71 2.93v7.2h-1.59v-12.74h1.59v1.98q.54-1.17 1.3-1.73.75-.56 1.78-.56 1.05 0 1.78.7.74.71 1.09 2.05zM82.79 170.56v1.02h-7.26q.1 2.16.98 3.3.88 1.12 2.45 1.12.9 0 1.76-.3.86-.29 1.7-.88v1.98q-.85.48-1.74.73-.9.25-1.81.25-2.3 0-3.65-1.78-1.34-1.77-1.34-4.8 0-3.12 1.27-4.96 1.28-1.84 3.44-1.84 1.94 0 3.06 1.66 1.14 1.65 1.14 4.5zm-1.58-.62q-.02-1.72-.73-2.74-.7-1.02-1.87-1.02-1.32 0-2.12.99-.79.99-.9 2.78zM94.69 166.18q-1.27 0-2 1.32-.75 1.3-.75 3.59t.73 3.6q.74 1.31 2.02 1.31 1.26 0 2-1.31.73-1.32.73-3.6 0-2.26-.73-3.58-.74-1.33-2-1.33zm0-1.78q2.06 0 3.23 1.78 1.18 1.77 1.18 4.91 0 3.13-1.18 4.91-1.17 1.78-3.23 1.78-2.07 0-3.24-1.78-1.17-1.78-1.17-4.91 0-3.14 1.17-4.91 1.17-1.78 3.24-1.78zM106.57 159.75v1.74h-1.51q-.85 0-1.19.45-.32.46-.32 1.64v1.13h2.6v1.63h-2.6v11.11h-1.59v-11.11h-1.5v-1.63h1.5v-.89q0-2.13.75-3.1.74-.97 2.37-.97zM115.03 161.1v3.6h3.25v1.64h-3.25v6.91q0 1.56.32 2 .33.45 1.31.45h1.62v1.75h-1.62q-1.83 0-2.52-.9-.7-.9-.7-3.3v-6.91h-1.15v-1.63h1.16v-3.62zM128.35 169.76v7.69h-1.58v-7.62q0-1.81-.53-2.71-.53-.9-1.6-.9-1.27 0-2 1.08-.75 1.08-.75 2.95v7.2h-1.58v-17.7h1.58v6.94q.57-1.15 1.33-1.72.77-.57 1.78-.57 1.65 0 2.5 1.37.85 1.35.85 3.99zM139.73 170.56v1.02h-7.25q.1 2.16.97 3.3.89 1.12 2.46 1.12.9 0 1.76-.3.85-.29 1.7-.88v1.98q-.86.48-1.75.73t-1.8.25q-2.3 0-3.65-1.78-1.34-1.77-1.34-4.8 0-3.12 1.27-4.96 1.28-1.84 3.44-1.84 1.94 0 3.06 1.66 1.13 1.65 1.13 4.5zm-1.58-.62q-.01-1.72-.72-2.74-.7-1.02-1.87-1.02-1.33 0-2.12.99-.8.99-.91 2.78zM155.9 169.76v7.69h-1.58v-7.62q0-1.81-.53-2.71-.53-.9-1.6-.9-1.27 0-2.01 1.08-.74 1.08-.74 2.95v7.2h-1.59v-17.7h1.59v6.94q.57-1.15 1.33-1.72.77-.57 1.78-.57 1.65 0 2.5 1.37.85 1.35.85 3.99zM159.06 164.7h1.58v12.75h-1.58zm0-4.95h1.58v2.65h-1.58zM171.92 169.76v7.69h-1.58v-7.62q0-1.81-.53-2.71-.53-.9-1.6-.9-1.27 0-2.01 1.08-.74 1.08-.74 2.95v7.2h-1.59v-12.74h1.6v1.98q.56-1.15 1.32-1.72.77-.57 1.78-.57 1.65 0 2.5 1.37.85 1.35.85 3.99zM181.4 170.93q0-2.27-.7-3.53-.71-1.25-1.99-1.25-1.27 0-1.98 1.25-.7 1.26-.7 3.53 0 2.26.7 3.52.71 1.25 1.98 1.25 1.28 0 1.98-1.25.71-1.26.71-3.52zm1.58 4.94q0 3.25-1.09 4.83-1.09 1.6-3.33 1.6-.83 0-1.57-.17-.74-.16-1.43-.5v-2.04q.69.5 1.37.74.68.24 1.38.24 1.55 0 2.32-1.08.77-1.07.77-3.25v-1.03q-.48 1.12-1.25 1.68-.76.56-1.82.56-1.77 0-2.85-1.79-1.08-1.78-1.08-4.73 0-2.96 1.08-4.74 1.08-1.79 2.85-1.79 1.06 0 1.82.56.77.56 1.25 1.68v-1.93h1.58zM194.45 170.56v1.02h-7.26q.1 2.16.98 3.3.88 1.12 2.45 1.12.91 0 1.76-.3.86-.29 1.7-.88v1.98q-.85.48-1.74.73-.9.25-1.81.25-2.3 0-3.65-1.78-1.33-1.77-1.33-4.8 0-3.12 1.27-4.96 1.27-1.84 3.44-1.84 1.93 0 3.06 1.66 1.13 1.65 1.13 4.5zm-1.58-.62q-.02-1.72-.73-2.74-.7-1.02-1.87-1.02-1.32 0-2.12.99-.79.99-.9 2.78zM203.16 165.08v1.98q-.67-.45-1.39-.68-.72-.23-1.49-.23-1.17 0-1.77.48-.58.48-.58 1.43 0 .73.42 1.15.42.41 1.7.79l.53.16q1.68.48 2.39 1.35.7.87.7 2.42 0 1.78-1.06 2.81-1.05 1.04-2.9 1.04-.78 0-1.62-.2-.83-.2-1.75-.6v-2.16q.87.6 1.72.91.85.3 1.68.3 1.12 0 1.72-.5.6-.51.6-1.44 0-.85-.44-1.3-.43-.46-1.9-.88l-.55-.17q-1.46-.41-2.11-1.25-.66-.86-.66-2.33 0-1.8.97-2.78.96-.98 2.72-.98.88 0 1.65.17.77.17 1.42.51zM216.16 171.04q-1.92 0-2.65.58-.74.59-.74 1.98 0 1.12.55 1.78.55.65 1.5.65 1.32 0 2.1-1.23.8-1.24.8-3.29v-.47zm3.14-.86v7.27h-1.57v-1.93q-.55 1.16-1.35 1.71t-1.97.55q-1.48 0-2.35-1.1-.87-1.1-.87-2.94 0-2.15 1.08-3.24 1.09-1.1 3.24-1.1h2.22v-.2q0-1.44-.73-2.23-.7-.8-2-.8-.83 0-1.6.27-.79.26-1.5.78v-1.93q.86-.45 1.67-.66.82-.23 1.6-.23 2.07 0 3.1 1.43 1.03 1.44 1.03 4.35zM228.13 166.66q-.27-.2-.58-.3-.31-.1-.7-.1-1.33 0-2.05 1.17-.71 1.15-.71 3.3v6.72h-1.59v-12.74h1.59v1.98q.5-1.16 1.3-1.72.8-.57 1.93-.57.17 0 .36.04.2.02.44.07zM237.64 170.56v1.02h-7.26q.1 2.16.98 3.3.88 1.12 2.45 1.12.91 0 1.76-.3.86-.29 1.7-.88v1.98q-.85.48-1.74.73-.9.25-1.81.25-2.3 0-3.64-1.78-1.34-1.77-1.34-4.8 0-3.12 1.27-4.96 1.27-1.84 3.44-1.84 1.93 0 3.06 1.66 1.13 1.65 1.13 4.5zm-1.58-.62q-.02-1.72-.73-2.74-.7-1.02-1.87-1.02-1.32 0-2.12.99-.78.99-.9 2.78zM253.3 167.15q.6-1.4 1.41-2.08.83-.67 1.94-.67 1.5 0 2.32 1.4.81 1.39.81 3.96v7.69h-1.58v-7.62q0-1.83-.5-2.72-.48-.89-1.48-.89-1.23 0-1.94 1.08t-.71 2.95v7.2h-1.6v-7.62q0-1.85-.48-2.72-.49-.89-1.5-.89-1.22 0-1.93 1.1-.71 1.07-.71 2.93v7.2h-1.59v-12.74h1.59v1.98q.54-1.17 1.3-1.73.75-.56 1.79-.56t1.77.7q.74.71 1.09 2.05zM262.94 164.7h1.58v12.75h-1.58zm0-4.95h1.58v2.65h-1.58zM273.93 165.08v1.98q-.66-.45-1.38-.68-.73-.23-1.5-.23-1.17 0-1.76.48-.59.48-.59 1.43 0 .73.42 1.15.42.41 1.7.79l.53.16q1.68.48 2.39 1.35.7.87.7 2.42 0 1.78-1.05 2.81-1.06 1.04-2.91 1.04-.77 0-1.61-.2-.84-.2-1.76-.6v-2.16q.87.6 1.72.91.85.3 1.68.3 1.12 0 1.72-.5.6-.51.6-1.44 0-.85-.44-1.3-.43-.46-1.9-.88l-.54-.17q-1.47-.41-2.12-1.25-.65-.86-.65-2.33 0-1.8.96-2.78.96-.98 2.72-.98.88 0 1.65.17.77.17 1.42.51zM283.1 165.08v1.98q-.67-.45-1.4-.68-.72-.23-1.49-.23-1.17 0-1.76.48-.59.48-.59 1.43 0 .73.42 1.15.42.41 1.7.79l.53.16q1.68.48 2.39 1.35.7.87.7 2.42 0 1.78-1.05 2.81-1.06 1.04-2.91 1.04-.77 0-1.61-.2-.84-.2-1.76-.6v-2.16q.87.6 1.72.91.85.3 1.68.3 1.12 0 1.72-.5.6-.51.6-1.44 0-.85-.44-1.3-.43-.46-1.9-.88l-.54-.17q-1.47-.41-2.12-1.25-.65-.86-.65-2.33 0-1.8.96-2.78.96-.98 2.72-.98.88 0 1.65.17.77.17 1.42.51zM286.13 164.7h1.58v12.75h-1.58zm0-4.95h1.58v2.65h-1.58zM298.99 169.76v7.69h-1.58v-7.62q0-1.81-.53-2.71-.54-.9-1.6-.9-1.28 0-2.01 1.08-.74 1.08-.74 2.95v7.2h-1.59v-12.74h1.59v1.98q.56-1.15 1.33-1.72.77-.57 1.77-.57 1.66 0 2.5 1.37.86 1.35.86 3.99zM308.47 170.93q0-2.27-.71-3.53-.7-1.25-1.98-1.25-1.27 0-1.98 1.25-.7 1.26-.7 3.53 0 2.26.7 3.52.7 1.25 1.98 1.25t1.98-1.25q.71-1.26.71-3.52zm1.58 4.94q0 3.25-1.09 4.83-1.09 1.6-3.34 1.6-.83 0-1.57-.17-.73-.16-1.43-.5v-2.04q.7.5 1.37.74.68.24 1.39.24 1.55 0 2.32-1.08.77-1.07.77-3.25v-1.03q-.49 1.12-1.25 1.68-.76.56-1.83.56-1.76 0-2.84-1.79-1.09-1.78-1.09-4.73 0-2.96 1.09-4.74 1.08-1.79 2.84-1.79 1.07 0 1.83.56t1.25 1.68v-1.93h1.58zM313.52 174.56h1.81v2.89h-1.8z"/></g></svg>