<svg xmlns="http://www.w3.org/2000/svg" viewBox="0 0 348 348" fill="none" stroke-linecap="square" stroke-miterlimit="10"><path d="M5.08 5.78h336.91v337.67H5.08z" stroke="#000" stroke-width="2" stroke-linecap="butt" stroke-linejoin="round"/><path d="M133.84 15.67h74.33v56.88h-74.33z" fill="#000"/><path d="M154.54 44.09c0-2.7.28-4.89.83-6.53a8.21 8.21 0 012.48-3.83 6.39 6.39 0 014.16-1.34c1.23 0 2.3.25 3.23.75.93.49 1.7 1.2 2.3 2.14.6.92 1.08 2.06 1.42 3.4.35 1.34.52 3.14.52 5.41 0 2.69-.28 4.86-.83 6.51a8.16 8.16 0 01-2.49 3.83 6.35 6.35 0 01-4.15 1.35c-2.21 0-3.95-.8-5.2-2.38-1.52-1.9-2.27-5-2.27-9.31zm2.89 0c0 3.76.44 6.26 1.31 7.51.89 1.25 1.98 1.87 3.27 1.87s2.37-.63 3.25-1.88c.88-1.25 1.33-3.75 1.33-7.5 0-3.77-.45-6.28-1.33-7.52-.88-1.24-1.97-1.86-3.28-1.86a3.6 3.6 0 00-3.1 1.65c-.97 1.4-1.45 3.97-1.45 7.73zm14.9 0c0-2.7.28-4.89.83-6.53a8.21 8.21 0 012.49-3.83 6.39 6.39 0 014.15-1.34c1.23 0 2.31.25 3.24.75.93.49 1.7 1.2 2.3 2.14.6.92 1.07 2.06 1.42 3.4.34 1.34.51 3.14.51 5.41 0 2.69-.27 4.86-.83 6.51a8.16 8.16 0 01-2.48 3.83 6.35 6.35 0 01-4.16 1.35c-2.2 0-3.94-.8-5.2-2.38-1.5-1.9-2.26-5-2.26-9.31zm2.9 0c0 3.76.43 6.26 1.3 7.51.9 1.25 1.98 1.87 3.27 1.87 1.3 0 2.38-.63 3.25-1.88.89-1.25 1.33-3.75 1.33-7.5 0-3.77-.44-6.28-1.33-7.52-.87-1.24-1.97-1.86-3.28-1.86a3.6 3.6 0 00-3.09 1.65c-.97 1.4-1.45 3.97-1.45 7.73z" fill="#fff"/><path d="M15.26 17.7h109.9v54.84H15.25z" stroke="#000" stroke-width="2" stroke-linecap="butt" stroke-linejoin="round"/><path d="M15.26 72.65l39.69-54.08"/><path d="M15.26 72.65l39.69-54.08" stroke="#000" stroke-width="2" stroke-linecap="butt" stroke-linejoin="round"/><path d="M37.57 72.65l39.68-54.08"/><path d="M37.57 72.65l39.68-54.08" stroke="#000" stroke-width="2" stroke-linecap="butt" stroke-linejoin="round"/><path d="M59.87 72.65l39.69-54.08"/><path d="M59.87 72.65l39.69-54.08" stroke="#000" stroke-width="2" stroke-linecap="butt" stroke-linejoin="round"/><path d="M82.17 72.65l39.69-54.08"/><path d="M82.17 72.65l39.69-54.08m95-1.94h109.9v54.84h-109.9z" stroke="#000" stroke-width="2" stroke-linecap="butt" stroke-linejoin="round"/><path d="M216.86 71.58l39.69-54.08"/><path d="M216.86 71.58l39.69-54.08" stroke="#000" stroke-width="2" stroke-linecap="butt" stroke-linejoin="round"/><path d="M239.17 71.58l39.68-54.08"/><path d="M239.17 71.58l39.68-54.08" stroke="#000" stroke-width="2" stroke-linecap="butt" stroke-linejoin="round"/><path d="M261.47 71.58l39.69-54.08"/><path d="M261.47 71.58l39.69-54.08" stroke="#000" stroke-width="2" stroke-linecap="butt" stroke-linejoin="round"/><path d="M283.78 71.58l39.68-54.08"/><path d="M283.78 71.58l39.68-54.08" stroke="#000" stroke-width="2" stroke-linecap="butt" stroke-linejoin="round"/><path fill="#fff" stroke="#000009" d="M14.74 97.47h104v100.76h-104zM118.74 97.47h104v100.76h-104zM222.74 97.47h104v100.76h-104zM35.32 237.9h66.36v35.2H35.32zM137.68 237.9h66.36v35.2h-66.36zM240.05 237.9h66.36v35.2h-66.36z"/></svg>